<?xml version="1.0" encoding="UTF-8"?>
<svg width="229px" height="31px" viewBox="0 0 229 31" version="1.1" xmlns="http://www.w3.org/2000/svg" xmlns:xlink="http://www.w3.org/1999/xlink">
    <title>logo</title>
    <g id="Page-1" stroke="none" stroke-width="1" fill="none" fill-rule="evenodd">
        <g id="Freehand-landing-page-Copy" transform="translate(-153.000000, -3678.000000)" fill-rule="nonzero">
            <g id="logo" transform="translate(153.000000, 3678.000000)">
                <path d="M27,17.2807018 C27,25.7602339 22.5184426,30 13.5,30 C4.48155738,30 0,25.7602339 0,17.2807018 L0,1 L9.90368852,1 L9.90368852,18.0721248 C9.90368852,19.5419103 10.1803279,20.6159844 10.7889344,21.3508772 C11.397541,22.08577 12.2827869,22.4814815 13.5,22.4814815 C14.6618852,22.4814815 15.602459,22.08577 16.2110656,21.3508772 C16.8196721,20.6159844 17.1516393,19.5419103 17.1516393,18.0721248 L17.1516393,1 L27,1 L27,17.2807018 Z" id="Path" fill="#F8FAFB"></path>
                <polygon id="Path" fill="#F8FAFB" points="59 29 48.1048387 29 41.2741935 16.2475248 39.6935484 12.809901 39.5806452 12.809901 39.75 18.5762376 39.75 29 31 29 31 1 41.8951613 1 48.7258065 13.8079208 50.3064516 17.190099 50.4193548 17.190099 50.25 11.4237624 50.25 1 59 1"></polygon>
                <polygon id="Path" fill="#F8FAFB" points="74.380117 18.486166 72.0623782 21.6403162 72.0623782 29 62 29 62 1.05533597 72.0623782 1.05533597 72.0623782 11.4031621 79.5243665 1 90.2651072 1 81.502924 12.1225296 91 29 79.6939571 29"></polygon>
                <polygon id="Path" fill="#F8FAFB" points="121.943662 29 111.070423 29 104.253521 16.2475248 102.676056 12.809901 102.56338 12.809901 102.732394 18.5762376 102.732394 29 94 29 94 1 104.929577 1 111.746479 13.8079208 113.323944 17.190099 113.43662 17.190099 113.267606 11.4237624 113.267606 1 122 1 122 29"></polygon>
                <polygon id="Path" fill="#F8FAFB" points="173.092369 29 162.746988 29 156 1 165.445783 1 168.819277 17.0792079 172.811245 1 181.413655 1 185.630522 16.9128713 188.947791 1 198 1 191.196787 29 181.188755 29 177.196787 12.8653465 177.084337 12.8653465"></polygon>
                <polygon id="Path" fill="#F8FAFB" points="229 29 218.082828 29 211.238384 16.2475248 209.654545 12.809901 209.541414 12.809901 209.711111 18.5762376 209.711111 29 201 29 201 1 211.917172 1 218.761616 13.8079208 220.345455 17.190099 220.458586 17.190099 220.232323 11.4237624 220.232323 1 229 1"></polygon>
                <circle id="Oval" fill="#FFDD00" cx="140.5" cy="15.5" r="15.5"></circle>
            </g>
        </g>
    </g>
</svg>